<svg version="1.1" id="Layer_1" xmlns="http://www.w3.org/2000/svg" xmlns:xlink="http://www.w3.org/1999/xlink" x="0px" y="0px" viewBox="0 0 150 150" enable-background="new 0 0 150 150" xml:space="preserve">
<g>
	<path  d="M75.077,0.451c-41.064,0-74.472,33.408-74.472,74.472c0,41.063,33.408,74.472,74.472,74.472
		c41.063,0,74.472-33.408,74.472-74.472C149.549,33.859,116.141,0.451,75.077,0.451z M75.077,144.395
		c-38.307,0-69.472-31.165-69.472-69.472S36.771,5.451,75.077,5.451s69.472,31.165,69.472,69.472S113.384,144.395,75.077,144.395z"></path>
	<path  d="M114.985,50.068L75.566,35.522c-0.366-0.135-0.767-0.135-1.133,0L35.015,50.068l-0.001,0.001
		c-0.129,0.048-0.252,0.111-0.368,0.191c-0.439,0.306-0.701,0.807-0.701,1.342v46.796c0,0.686,0.427,1.299,1.069,1.535
		l39.419,14.545c0.184,0.068,0.376,0.1,0.566,0.1c0.192,0,0.384-0.035,0.565-0.1h0.001l39.419-14.545
		c0.643-0.236,1.069-0.85,1.069-1.535V51.602C116.055,50.917,115.628,50.305,114.985,50.068z M73.364,110.596L37.217,97.258V53.949
		l7.36,2.716l20.936,7.725l7.851,2.898V110.596z M75,64.404l-6.415-2.367l-22.391-8.262l-5.888-2.173L75,38.8l34.694,12.802
		L75,64.404z M112.783,97.258l-36.147,13.338V67.288l36.147-13.339V97.258z"></path>
</g>
</svg>