<svg version="1.1" id="Layer_1" xmlns="http://www.w3.org/2000/svg" xmlns:xlink="http://www.w3.org/1999/xlink" x="0px" y="0px" viewBox="0 0 150 150" enable-background="new 0 0 150 150" xml:space="preserve">
<g>
	<path  d="M113.244,120.926h-3.359V67.118c0-0.839-0.682-1.522-1.523-1.522h-0.188
		c-0.168-0.715-0.58-1.363-1.178-1.81l-11.758-8.819V41.081c0-0.84-0.682-1.524-1.525-1.524h-0.186
		c-0.166-0.714-0.58-1.362-1.176-1.81L74.124,24.078c-0.027-0.021-0.043-0.052-0.043-0.085v-0.814c0-1.736-1.413-3.149-3.149-3.149
		h-6.511c-1.736,0-3.149,1.413-3.149,3.149v0.814c0,0.033-0.016,0.063-0.043,0.085L43.002,37.747
		c-0.596,0.447-1.01,1.096-1.177,1.81h-0.188c-0.841,0-1.522,0.684-1.522,1.524v79.845h-3.359c-0.84,0-1.522,0.684-1.522,1.521
		c0,0.844,0.682,1.523,1.522,1.523h76.488c0.84,0,1.521-0.68,1.521-1.523C114.766,121.609,114.084,120.926,113.244,120.926z
		 M56.473,65.595h-0.188c-0.84,0-1.521,0.683-1.521,1.522v53.808H43.162V42.604h32.651c0.842,0,1.523-0.683,1.523-1.523
		s-0.682-1.524-1.523-1.524H45.665l17.392-13.044c0.791-0.591,1.26-1.533,1.26-2.519v-0.814c0-0.056,0.047-0.104,0.105-0.104h6.511
		c0.056,0,0.104,0.048,0.104,0.104v0.814c0,0.986,0.47,1.928,1.261,2.519l17.392,13.044h-7.367c-0.84,0-1.523,0.684-1.523,1.524
		s0.684,1.523,1.523,1.523h9.869v10.079l-3.42-2.567c-0.027-0.023-0.043-0.054-0.043-0.085v-0.815c0-1.732-1.414-3.146-3.15-3.146
		h-6.51c-1.736,0-3.15,1.414-3.15,3.146v0.815c0,0.031-0.016,0.062-0.04,0.085L57.651,63.785
		C57.053,64.232,56.639,64.88,56.473,65.595z M61.272,120.926h-3.464V68.64h3.464V120.926z M71.037,120.926h-6.72v-6.719h6.72
		V120.926z M71.037,111.162h-6.72v-3.463h6.72V111.162z M71.037,104.654h-6.72v-3.465h6.72V104.654z M71.037,98.141h-6.72v-3.463
		h6.72V98.141z M71.037,91.633h-6.72V88.17h6.72V91.633z M71.037,85.125h-6.72V81.66h6.72V85.125z M71.037,78.617h-6.72v-3.465h6.72
		V78.617z M71.037,72.104h-6.72V68.64h6.72V72.104z M106.838,120.926H74.081V68.64h18.005c0.842,0,1.523-0.68,1.523-1.522
		c0-0.839-0.682-1.522-1.523-1.522H60.311l17.392-13.044c0.789-0.59,1.26-1.534,1.26-2.52v-0.815c0-0.055,0.049-0.101,0.105-0.101
		h6.51c0.059,0,0.105,0.046,0.105,0.101v0.815c0,0.986,0.469,1.93,1.26,2.52l17.393,13.044h-5.738c-0.842,0-1.523,0.683-1.523,1.522
		c0,0.842,0.682,1.522,1.523,1.522h8.24V120.926z"></path>
	<path  d="M101.852,78.406c0.84,0,1.523-0.684,1.523-1.521v-3.254c0-0.844-0.684-1.527-1.523-1.527
		c-0.842,0-1.523,0.683-1.523,1.527v3.254C100.328,77.723,101.01,78.406,101.852,78.406z"></path>
	<path  d="M101.852,101.189c0.84,0,1.523-0.682,1.523-1.525V83.393c0-0.844-0.684-1.521-1.523-1.521
		c-0.842,0-1.523,0.678-1.523,1.521v16.271C100.328,100.508,101.01,101.189,101.852,101.189z"></path>
	<path  d="M75.077,0.451c-41.064,0-74.472,33.408-74.472,74.472c0,41.063,33.408,74.472,74.472,74.472
		c41.063,0,74.472-33.408,74.472-74.472C149.549,33.859,116.141,0.451,75.077,0.451z M75.077,144.395
		c-38.307,0-69.472-31.165-69.472-69.472S36.771,5.451,75.077,5.451s69.472,31.165,69.472,69.472S113.384,144.395,75.077,144.395z"></path>
</g>
</svg>