<svg version="1.1" id="Layer_1" xmlns="http://www.w3.org/2000/svg" xmlns:xlink="http://www.w3.org/1999/xlink" x="0px" y="0px" viewBox="0 0 150 150" enable-background="new 0 0 150 150" xml:space="preserve">
<g>
	<path  d="M75.077,0.451c-41.064,0-74.472,33.408-74.472,74.472c0,41.063,33.408,74.472,74.472,74.472
		c41.063,0,74.472-33.408,74.472-74.472C149.549,33.859,116.141,0.451,75.077,0.451z M75.077,144.395
		c-38.307,0-69.472-31.165-69.472-69.472S36.771,5.451,75.077,5.451s69.472,31.165,69.472,69.472S113.384,144.395,75.077,144.395z"></path>
	<path  d="M103.665,31.118H46.333c-0.903,0-1.637,0.734-1.637,1.637v0.904c0,1.95,1.231,3.708,3.064,4.375
		l13.532,4.92v1.871c0,1.735,1.412,3.146,3.146,3.146h8.924v4.269h-7.415c-0.804,0-1.483,0.576-1.615,1.368l-1.233,7.402
		c-4.521,2.201-8.348,5.603-11.073,9.844c-2.821,4.392-4.312,9.477-4.312,14.707c0,9.859,5.306,18.91,13.889,23.764l-5.718,1.271
		c-2.146,0.477-3.645,2.344-3.645,4.543v2.105c0,0.902,0.735,1.639,1.638,1.639h42.245c0.902,0,1.638-0.736,1.638-1.639v-2.105
		c0-2.199-1.499-4.068-3.646-4.543l-5.717-1.271c8.582-4.854,13.888-13.904,13.888-23.764c0-5.23-1.49-10.315-4.312-14.707
		c-2.725-4.241-6.552-7.643-11.072-9.844l-1.233-7.402c-0.133-0.792-0.812-1.368-1.615-1.368h-7.416v-4.269h8.924
		c1.735,0,3.146-1.412,3.146-3.146v-1.871l13.533-4.92c1.832-0.667,3.063-2.424,3.063-4.375v-0.904
		C105.304,31.852,104.569,31.118,103.665,31.118z M93.404,113.791c0.636,0.143,1.08,0.695,1.08,1.348v0.469H55.515v-0.469
		c0-0.652,0.444-1.205,1.081-1.348l10.089-2.242c2.684,0.861,5.481,1.297,8.315,1.297s5.63-0.436,8.314-1.297L93.404,113.791z
		 M99.011,85.561c0,13.24-10.772,24.012-24.011,24.012c-13.24,0-24.012-10.771-24.012-24.012c0-13.239,10.771-24.011,24.012-24.011
		C88.238,61.549,99.011,72.321,99.011,85.561z M82.666,55.515l0.677,4.065c-2.689-0.866-5.495-1.304-8.343-1.304
		c-2.849,0-5.653,0.438-8.343,1.304l0.678-4.065H82.666z M85.432,44.696H64.567v-1.251h20.865V44.696z M101.12,34.956L86.781,40.17
		H63.218l-14.339-5.214c-0.288-0.104-0.533-0.306-0.695-0.563h53.632C101.652,34.65,101.407,34.852,101.12,34.956z"></path>
	<path  d="M55.257,85.561c0,10.887,8.856,19.742,19.743,19.742c10.886,0,19.742-8.855,19.742-19.742
		c0-4.666-1.66-9.186-4.679-12.748l1.182-1.181c0.31-0.309,0.479-0.721,0.479-1.158c0-0.438-0.17-0.849-0.479-1.158
		c-0.31-0.31-0.721-0.48-1.157-0.48c-0.438,0-0.851,0.17-1.158,0.48l-1.181,1.182c-3.563-3.019-8.083-4.68-12.749-4.68
		C64.114,65.818,55.257,74.675,55.257,85.561z M76.637,71.982v-2.807c3.234,0.319,6.262,1.577,8.786,3.647l-8.501,8.5
		c-0.605-0.275-1.251-0.416-1.922-0.416c-2.567,0-4.655,2.088-4.655,4.654c0,0.672,0.14,1.316,0.417,1.924l-1.446,1.445
		c-0.638,0.639-0.638,1.678,0,2.314c0.309,0.311,0.72,0.48,1.158,0.48c0.437,0,0.849-0.17,1.158-0.48l1.446-1.445
		c0.605,0.275,1.251,0.418,1.923,0.418c2.566,0,4.654-2.09,4.654-4.656c0-0.67-0.14-1.316-0.417-1.922l8.501-8.5
		c2.07,2.524,3.327,5.551,3.646,8.786h-2.807c-0.903,0-1.637,0.734-1.637,1.637s0.733,1.639,1.637,1.639h2.807
		c-0.374,3.764-2.055,7.307-4.746,10c-2.694,2.693-6.237,4.373-10.002,4.748v-2.807c0-0.904-0.734-1.639-1.637-1.639
		c-0.903,0-1.638,0.734-1.638,1.639v2.807c-3.765-0.375-7.308-2.055-10-4.748c-2.693-2.693-4.373-6.236-4.748-10h2.808
		c0.902,0,1.637-0.736,1.637-1.639s-0.734-1.637-1.637-1.637h-2.808c0.375-3.764,2.055-7.307,4.748-10
		c2.693-2.694,6.236-4.374,10-4.748v2.807c0,0.903,0.734,1.639,1.638,1.639C75.902,73.621,76.637,72.885,76.637,71.982z
		 M76.38,85.561c0,0.762-0.619,1.381-1.38,1.381c-0.762,0-1.381-0.619-1.381-1.381s0.619-1.379,1.381-1.379
		C75.761,84.182,76.38,84.799,76.38,85.561z"></path>
</g>
</svg>