<svg version="1.1" id="Layer_1" xmlns="http://www.w3.org/2000/svg" xmlns:xlink="http://www.w3.org/1999/xlink" x="0px" y="0px" viewBox="0 0 24 24" enable-background="new 0 0 24 24" xml:space="preserve">
<g id="calculator_finance_calculate_button_mathematics_calculation_office_technology_math_digital">
	<path fill="#4E5D59" d="M18.281,1.007H5.718c-1.301,0-2.355,1.055-2.355,2.355v17.274c0,1.301,1.055,2.356,2.355,2.356h12.563
		c1.301,0,2.355-1.056,2.355-2.356V3.362C20.637,2.062,19.582,1.007,18.281,1.007z M5.718,2.577h12.563
		c0.434,0,0.785,0.352,0.785,0.785v5.496H4.933V3.362C4.933,2.929,5.285,2.577,5.718,2.577z M19.066,20.637
		c0,0.435-0.352,0.785-0.785,0.785H5.718c-0.434,0-0.785-0.351-0.785-0.785V10.43h14.133V20.637z"></path>
	<path fill="#4E5D59" d="M16.711,19.852c0.434,0,0.785-0.351,0.785-0.786v-6.279c0-0.436-0.352-0.785-0.785-0.785
		s-0.785,0.35-0.785,0.785v6.279C15.926,19.501,16.277,19.852,16.711,19.852z"></path>
	<path fill="#4E5D59" d="M7.392,14.557c0.424,0.428,1.115,0.43,1.542,0.006c0.002-0.002,0.004-0.004,0.006-0.006
		c0.097-0.105,0.174-0.229,0.229-0.361c0.117-0.263,0.117-0.563,0-0.828c-0.052-0.134-0.129-0.256-0.229-0.359
		c-0.054-0.05-0.112-0.093-0.174-0.131C8.71,12.834,8.647,12.8,8.581,12.778c-0.065-0.033-0.135-0.055-0.207-0.065
		c-0.356-0.071-0.724,0.039-0.982,0.295c-0.099,0.104-0.177,0.226-0.229,0.359c-0.116,0.265-0.116,0.565,0,0.828
		C7.218,14.328,7.295,14.451,7.392,14.557z"></path>
	<path fill="#4E5D59" d="M11.755,14.557c0.424,0.428,1.116,0.43,1.543,0.006c0.207-0.206,0.322-0.486,0.32-0.78
		c-0.002-0.29-0.115-0.565-0.314-0.774c-0.055-0.05-0.111-0.093-0.176-0.131c-0.055-0.043-0.117-0.077-0.186-0.099
		c-0.064-0.033-0.133-0.055-0.207-0.065c-0.209-0.044-0.426-0.021-0.622,0.065c-0.273,0.099-0.49,0.315-0.589,0.589
		c-0.061,0.131-0.091,0.272-0.087,0.415c-0.001,0.142,0.024,0.283,0.077,0.413C11.578,14.326,11.659,14.448,11.755,14.557z"></path>
	<path fill="#4E5D59" d="M7.392,18.921c0.424,0.428,1.115,0.43,1.542,0.005c0.002-0.001,0.004-0.003,0.006-0.005
		c0.097-0.107,0.174-0.229,0.229-0.361c0.117-0.263,0.117-0.563,0-0.828c-0.052-0.135-0.129-0.256-0.229-0.36
		c-0.054-0.05-0.112-0.093-0.174-0.13c-0.056-0.043-0.119-0.077-0.186-0.099c-0.065-0.034-0.135-0.056-0.207-0.066
		c-0.356-0.071-0.724,0.039-0.982,0.295c-0.099,0.104-0.177,0.226-0.229,0.36c-0.116,0.265-0.116,0.565,0,0.828
		C7.218,18.691,7.295,18.813,7.392,18.921z"></path>
	<path fill="#4E5D59" d="M12.502,19.267c0.602,0,1.09-0.489,1.09-1.092c-0.004-0.29-0.117-0.565-0.316-0.774
		c-0.053-0.051-0.113-0.094-0.174-0.131c-0.057-0.043-0.119-0.077-0.186-0.099c-0.064-0.034-0.135-0.056-0.209-0.066
		c-0.208-0.043-0.425-0.021-0.62,0.066c-0.275,0.099-0.491,0.315-0.59,0.589c-0.061,0.131-0.091,0.271-0.087,0.415
		C11.41,18.777,11.898,19.267,12.502,19.267z"></path>
</g>
</svg>