<svg version="1.1" id="Layer_1" xmlns="http://www.w3.org/2000/svg" xmlns:xlink="http://www.w3.org/1999/xlink" x="0px" y="0px" viewBox="0 0 24 24" enable-background="new 0 0 24 24" xml:space="preserve">
<g>
	<path fill="#0C3324" d="M20.25,2.75c-0.552,0-1,0.449-1,1v16.5c0,0.552,0.448,1,1,1s1-0.448,1-1V3.75
		C21.25,3.199,20.802,2.75,20.25,2.75z"></path>
	<path fill="#0C3324" d="M16.385,10.829L5.915,3.322C5.571,3.075,5.17,2.944,4.756,2.944c-1.106,0-2.006,0.898-2.006,2.003V19.17
		c0,1.104,0.899,2.003,2.004,2.004c0.378,0,0.75-0.111,1.075-0.32l10.469-6.716c0.559-0.358,0.902-0.968,0.92-1.631
		C17.236,11.843,16.925,11.215,16.385,10.829z M15.22,12.454L4.75,19.17L4.749,4.948c0,0,0,0,0.001-0.001L15.22,12.454z"></path>
</g>
</svg>