<svg version="1.1" id="Layer_1" xmlns="http://www.w3.org/2000/svg" xmlns:xlink="http://www.w3.org/1999/xlink" x="0px" y="0px" width="17px" height="17px" class="fumigacao_svg" viewBox="0 0 24 24" enable-background="new 0 0 24 24" xml:space="preserve">
<path fill="#0c3324" d="M20.241,17.38c-0.312,0-0.62-0.146-0.815-0.419c-0.32-0.45-0.216-1.074,0.233-1.396
	c1.578-1.126,2.521-2.952,2.521-4.885c0-3.325-2.705-6.03-6.029-6.03c-1.928,0-3.752,0.933-4.879,2.495
	c-0.322,0.448-0.948,0.549-1.396,0.226C9.427,7.048,9.326,6.423,9.649,5.975c1.502-2.082,3.933-3.325,6.501-3.325
	c4.428,0,8.029,3.603,8.029,8.03c0,2.579-1.256,5.013-3.358,6.514C20.645,17.319,20.442,17.38,20.241,17.38z"></path>
<path fill="#0c3324" d="M3.66,11.95c-0.552,0-1-0.448-1-1c0-3.209,2.611-5.82,5.82-5.82c0.85,0,1.659,0.176,2.403,0.524
	c0.5,0.234,0.716,0.829,0.483,1.33c-0.234,0.501-0.83,0.717-1.33,0.483C9.559,7.243,9.035,7.13,8.48,7.13
	c-2.106,0-3.82,1.714-3.82,3.82C4.66,11.502,4.212,11.95,3.66,11.95z"></path>
<path fill="#0c3324" d="M3.66,11.95H1c-0.552,0-1-0.448-1-1s0.448-1,1-1h2.66c0.552,0,1,0.448,1,1S4.212,11.95,3.66,11.95z"></path>
<path fill="#0c3324" d="M13.24,24c-4.422,0-8.02-3.598-8.02-8.02c0-0.127,0.002-0.253,0.016-0.379
	c0.06-0.548,0.557-0.942,1.102-0.886c0.549,0.06,0.946,0.553,0.886,1.103C7.218,15.872,7.22,15.926,7.22,15.98
	C7.22,19.3,9.921,22,13.24,22c3.192,0,5.829-2.492,6.001-5.674c0.03-0.552,0.54-0.998,1.053-0.944
	c0.552,0.029,0.975,0.501,0.944,1.052C21.009,20.677,17.495,24,13.24,24z"></path>
<path fill="#0c3324" d="M13.416,16.709H3.66c-0.552,0-1-0.447-1-1s0.448-1,1-1h9.756c0.553,0,1,0.447,1,1
	S13.969,16.709,13.416,16.709z"></path>
<path fill="#0c3324" d="M18.459,12.971c-0.137,0-0.275-0.028-0.408-0.088c-0.504-0.227-0.729-0.818-0.503-1.322
	c0.062-0.139,0.122-0.269,0.156-0.421c0.21-0.948-0.393-1.898-1.346-2.114c-0.545-0.089-0.969-0.613-0.88-1.158
	c0.089-0.545,0.55-0.922,1.094-0.834c0.006,0.001,0.093,0.016,0.099,0.018l0.131,0.024c2.021,0.458,3.303,2.478,2.854,4.501
	c-0.072,0.319-0.185,0.582-0.284,0.804C19.206,12.751,18.841,12.971,18.459,12.971z"></path>
</svg>