<svg version="1.1" id="Layer_1" xmlns="http://www.w3.org/2000/svg" xmlns:xlink="http://www.w3.org/1999/xlink" x="0px" y="0px" width="17px" height="17px" viewBox="0 0 24 24" enable-background="new 0 0 24 24" class="liquido_svg" xml:space="preserve">
<g>
	<path fill="#0c3324" d="M17.221,13.22c0-0.556-0.45-1.006-1.006-1.006c-0.544,0-0.98,0.434-0.999,0.973h-0.007c0,2.209-1.791,4-4,4
		v0.028c-0.449,0.102-0.791,0.483-0.791,0.963s0.342,0.861,0.791,0.963v0.046c0.062,0,0.122-0.008,0.184-0.01
		c0.011,0.001,0.02,0.007,0.031,0.007c0.019,0,0.034-0.01,0.052-0.011c3.148-0.139,5.663-2.696,5.727-5.864
		C17.206,13.277,17.221,13.251,17.221,13.22z"></path>
	<path fill="#0c3324" d="M12.658,1.247L12,0.672l-0.658,0.574C5.812,6.076,3,10.293,3,14c0,5.25,4.097,9,9,9c4.902,0,9-3.75,9-9
		C21,10.293,18.188,6.076,12.658,1.247z M12,21c-3.836,0-7-2.896-7-7c0-2.849,2.307-6.434,7-10.664c4.693,4.23,7,7.814,7,10.664
		C19,18.104,15.836,21,12,21z"></path>
</g>
</svg>