<svg version="1.1" id="Layer_1" xmlns="http://www.w3.org/2000/svg" xmlns:xlink="http://www.w3.org/1999/xlink" x="0px" y="0px"
	 viewBox="0 0 150 150" style="enable-background:new 0 0 150 150;" xml:space="preserve">
<path fill="#FE8E90" d="M114,0H36C16.1,0,0,16.1,0,36v78c0,19.9,16.1,36,36,36h78c19.9,0,36-16.1,36-36V36C150,16.1,133.9,0,114,0z
	 M100.2,89.3c3,3,3,7.9,0,10.9c-1.5,1.5-3.4,2.3-5.5,2.3h0c-2.1,0-4-0.8-5.4-2.2L75,85.9l-14.3,14.3c-2.9,2.9-8,2.9-10.9,0
	c-1.5-1.5-2.3-3.4-2.3-5.4c0-2,0.8-4,2.3-5.4L64.1,75L49.8,60.7c-1.4-1.4-2.2-3.4-2.2-5.5c0-2,0.8-4,2.3-5.5c2.9-2.9,8-2.9,10.9,0
	L75,64.1l14.3-14.3c2.9-2.9,8-2.9,10.9,0c1.5,1.5,2.3,3.4,2.3,5.4c0,2.1-0.8,4-2.3,5.4L85.9,75L100.2,89.3z"/>
</svg>
