<?xml version="1.0" encoding="utf-8"?>
<!-- Generator: Adobe Illustrator 16.0.4, SVG Export Plug-In . SVG Version: 6.00 Build 0)  -->
<!DOCTYPE svg PUBLIC "-//W3C//DTD SVG 1.1//EN" "http://www.w3.org/Graphics/SVG/1.1/DTD/svg11.dtd">
<svg version="1.1" id="Layer_1" xmlns="http://www.w3.org/2000/svg" xmlns:xlink="http://www.w3.org/1999/xlink" x="0px" y="0px"
	 width="254.778px" height="235.766px" viewBox="0 246.375 254.778 235.766" enable-background="new 0 246.375 254.778 235.766"
	 xml:space="preserve">
<g>
	<path fill="#FFFFFF" d="M10.615,347.989c-0.434,1.007-0.875,2.07-1.323,3.19s-0.906,2.313-1.374,3.58
		c-0.469,1.267-0.963,2.646-1.484,4.14h3.24c0.151-0.479,0.314-0.972,0.49-1.479c0.176-0.509,0.352-1.015,0.527-1.521h5.412
		c0.176,0.503,0.354,1.009,0.531,1.517c0.178,0.507,0.343,1.002,0.497,1.483h3.342c-0.522-1.493-1.019-2.873-1.487-4.14
		s-0.928-2.46-1.376-3.58s-0.895-2.184-1.337-3.19c-0.441-1.007-0.891-1.99-1.346-2.95h-2.957
		C11.502,345.999,11.051,346.982,10.615,347.989z M12.62,350.202c0.171-0.454,0.323-0.854,0.458-1.201
		c0.134-0.347,0.235-0.62,0.305-0.821c0.084,0.196,0.192,0.468,0.328,0.813c0.135,0.347,0.291,0.746,0.471,1.2
		c0.178,0.455,0.367,0.956,0.566,1.503c0.198,0.548,0.404,1.122,0.616,1.723h-3.964c0.219-0.599,0.434-1.171,0.645-1.717
		C12.258,351.156,12.449,350.656,12.62,350.202z"/>
	<path fill="#FFFFFF" d="M239.795,410.612V291.326c0-1.746-1.088-3.306-2.727-3.912L136.59,250.34c-0.932-0.344-1.955-0.344-2.887,0
		L33.225,287.414l-0.001,0.003c-0.329,0.123-0.646,0.284-0.94,0.488c-1.118,0.78-1.785,2.057-1.785,3.42v119.286
		c0,1.746,1.088,3.307,2.727,3.912l100.479,37.074c0.469,0.174,0.957,0.258,1.443,0.258c0.49,0,0.979-0.09,1.441-0.26l0.002,0.002
		l100.479-37.074C238.707,413.919,239.795,412.358,239.795,410.612z M130.977,441.704l-92.141-33.998V297.309l18.762,6.923
		l53.367,19.69l20.012,7.385V441.704z M135.147,323.958l-16.352-6.034l-57.072-21.058l-15.01-5.54l88.434-32.63l88.436,32.631
		L135.147,323.958z M231.457,407.706l-92.141,33.998V331.307l92.141-33.998V407.706z"/>
	
		<rect x="208.234" y="445.475" transform="matrix(-0.3475 -0.9377 0.9377 -0.3475 -136.3764 798.5312)" fill="#FFFFFF" width="2.844" height="2.485"/>
	
		<rect x="217.555" y="442.017" transform="matrix(-0.3477 -0.9376 0.9376 -0.3477 -120.5018 802.6822)" fill="#FFFFFF" width="2.845" height="2.486"/>
	
		<rect x="222.215" y="440.289" transform="matrix(-0.3479 -0.9375 0.9375 -0.3479 -112.5277 804.7909)" fill="#FFFFFF" width="2.847" height="2.485"/>
	
		<rect x="231.538" y="436.83" transform="matrix(-0.3479 -0.9375 0.9375 -0.3479 -96.7067 808.8815)" fill="#FFFFFF" width="2.844" height="2.486"/>
	
		<rect x="236.199" y="435.102" transform="matrix(-0.3476 -0.9376 0.9376 -0.3476 -88.9254 810.8156)" fill="#FFFFFF" width="2.843" height="2.486"/>
	
		<rect x="226.876" y="438.559" transform="matrix(-0.348 -0.9375 0.9375 -0.348 -104.579 806.8683)" fill="#FFFFFF" width="2.846" height="2.486"/>
	
		<rect x="212.895" y="443.746" transform="matrix(-0.3481 -0.9375 0.9375 -0.3481 -128.247 800.7936)" fill="#FFFFFF" width="2.845" height="2.485"/>
	
		<rect x="204.167" y="447.618" transform="matrix(-0.3483 -0.9374 0.9374 -0.3483 -142.9753 797.0444)" fill="#FFFFFF" width="2.846" height="1.215"/>
	<polygon fill="#FFFFFF" points="247.754,441.943 250.421,440.954 244.323,424.504 241.653,425.493 244.209,432.385 
		240.866,433.624 240.621,433.715 240.621,433.715 238.653,434.445 239.639,437.114 241.612,436.383 241.612,436.383 
		242.158,436.179 245.198,435.052 	"/>
	
		<rect x="177.061" y="457.035" transform="matrix(-0.3479 -0.9375 0.9375 -0.3479 -189.0871 785.0273)" fill="#FFFFFF" width="2.847" height="2.485"/>
	
		<rect x="153.759" y="465.678" transform="matrix(-0.3478 -0.9376 0.9376 -0.3478 -228.6268 774.7979)" fill="#FFFFFF" width="2.845" height="2.486"/>
	
		<rect x="181.722" y="455.308" transform="matrix(-0.3481 -0.9375 0.9375 -0.3481 -181.1068 787.1543)" fill="#FFFFFF" width="2.845" height="2.483"/>
	
		<rect x="163.081" y="462.221" transform="matrix(-0.3475 -0.9377 0.9377 -0.3475 -212.9234 778.7571)" fill="#FFFFFF" width="2.844" height="2.486"/>
	
		<rect x="167.741" y="460.491" transform="matrix(-0.3475 -0.9377 0.9377 -0.3475 -205.0218 780.7958)" fill="#FFFFFF" width="2.844" height="2.485"/>
	
		<rect x="172.401" y="458.763" transform="matrix(-0.3468 -0.9379 0.9379 -0.3468 -197.34 782.5859)" fill="#FFFFFF" width="2.847" height="2.487"/>
	
		<rect x="158.418" y="463.95" transform="matrix(-0.3481 -0.9375 0.9375 -0.3481 -220.6257 776.9595)" fill="#FFFFFF" width="2.845" height="2.485"/>
	
		<rect x="185.789" y="454.434" transform="matrix(-0.3478 -0.9376 0.9376 -0.3478 -174.3189 788.8174)" fill="#FFFFFF" width="2.845" height="1.215"/>
	<polygon fill="#FFFFFF" points="153.161,466.151 147.603,468.213 145.047,461.324 142.381,462.312 148.479,478.762 
		151.149,477.773 148.592,470.882 151.648,469.748 152.18,469.551 152.18,469.551 154.15,468.819 	"/>
	
		<rect x="97.893" y="458.301" transform="matrix(-0.9336 -0.3583 0.3583 -0.9336 26.9466 924.4417)" fill="#FFFFFF" width="2.485" height="2.846"/>
	
		<rect x="93.25" y="456.519" transform="matrix(-0.9333 -0.359 0.359 -0.9333 18.2705 919.2782)" fill="#FFFFFF" width="2.486" height="2.847"/>
	
		<rect x="88.61" y="454.74" transform="matrix(-0.9335 -0.3585 0.3585 -0.9335 10.2086 914.2164)" fill="#FFFFFF" width="2.484" height="2.844"/>
	
		<rect x="102.533" y="460.085" transform="matrix(-0.9335 -0.3585 0.3585 -0.9335 35.2139 929.5419)" fill="#FFFFFF" width="2.484" height="2.844"/>
	
		<rect x="116.278" y="465.604" transform="matrix(0.3586 -0.9335 0.9335 0.3586 -360.3073 409.3251)" fill="#FFFFFF" width="2.843" height="2.486"/>
	
		<rect x="107.175" y="461.863" transform="matrix(-0.9337 -0.358 0.358 -0.9337 43.7904 934.678)" fill="#FFFFFF" width="2.485" height="2.844"/>
	
		<rect x="111.816" y="463.643" transform="matrix(-0.9335 -0.3586 0.3586 -0.9335 51.8471 939.7461)" fill="#FFFFFF" width="2.487" height="2.845"/>
	
		<rect x="85.196" y="453.187" transform="matrix(-0.9336 -0.3583 0.3583 -0.9336 3.0086 909.7758)" fill="#FFFFFF" width="1.215" height="2.844"/>
	<polygon fill="#FFFFFF" points="125.261,468.225 122.251,467.07 121.691,466.854 121.691,466.855 119.729,466.102 118.707,468.758 
		120.671,469.511 120.671,469.511 121.806,469.947 121.806,469.947 124.242,470.882 121.61,477.744 124.266,478.762 
		130.553,462.384 127.895,461.362 	"/>
	
		<rect x="34.364" y="433.928" transform="matrix(-0.9337 -0.3581 0.3581 -0.9337 -87.0375 854.58)" fill="#FFFFFF" width="2.487" height="2.842"/>
	
		<rect x="43.646" y="437.488" transform="matrix(-0.9338 -0.3579 0.3579 -0.9338 -70.2683 864.8156)" fill="#FFFFFF" width="2.486" height="2.844"/>
	
		<rect x="39.006" y="435.707" transform="matrix(-0.9337 -0.358 0.358 -0.9337 -78.6651 859.6935)" fill="#FFFFFF" width="2.485" height="2.844"/>
	
		<rect x="48.288" y="439.265" transform="matrix(-0.9332 -0.3594 0.3594 -0.9332 -62.6178 869.736)" fill="#FFFFFF" width="2.486" height="2.846"/>
	
		<rect x="62.214" y="444.611" transform="matrix(-0.9336 -0.3584 0.3584 -0.9336 -37.1635 885.1774)" fill="#FFFFFF" width="2.482" height="2.844"/>
	
		<rect x="57.57" y="442.829" transform="matrix(-0.9335 -0.3587 0.3587 -0.9335 -45.6356 880.0372)" fill="#FFFFFF" width="2.486" height="2.846"/>
	
		<rect x="52.928" y="441.047" transform="matrix(-0.9335 -0.3586 0.3586 -0.9335 -53.9101 874.9436)" fill="#FFFFFF" width="2.487" height="2.846"/>
	
		<rect x="66.896" y="446.162" transform="matrix(-0.9335 -0.3586 0.3586 -0.9335 -29.9872 889.6088)" fill="#FFFFFF" width="1.215" height="2.846"/>
	<polygon fill="#FFFFFF" points="34.6,433.436 29.065,431.311 31.697,424.452 29.042,423.432 22.754,439.811 25.412,440.833 
		28.045,433.969 30.593,434.946 31.617,435.34 31.617,435.339 33.58,436.092 	"/>
	<rect x="12.002" y="387.388" fill="#FFFFFF" width="2.845" height="2.434"/>
	<rect x="12.001" y="397.127" fill="#FFFFFF" width="2.843" height="2.434"/>
	<polygon fill="#FFFFFF" points="12.002,382.52 12.001,384.953 14.844,384.955 14.85,382.518 	"/>
	<rect x="12.001" y="392.258" fill="#FFFFFF" width="2.843" height="2.436"/>
	<polygon fill="#FFFFFF" points="14.854,372.782 12.008,372.781 12.004,375.217 14.851,375.216 	"/>
	<rect x="12.004" y="377.65" fill="#FFFFFF" width="2.846" height="2.436"/>
	<rect x="12.009" y="367.913" fill="#FFFFFF" width="2.844" height="2.434"/>
	<rect x="12.01" y="364.288" fill="#FFFFFF" width="2.844" height="1.189"/>
	<polygon fill="#FFFFFF" points="14.843,403.188 13.422,403.187 14.841,403.187 14.842,401.997 11.996,401.996 11.995,403.186 
		11.998,403.186 11.996,409.113 4.646,409.111 4.646,411.957 22.19,411.964 22.193,409.116 14.842,409.114 	"/>
	<rect x="12.023" y="317.941" fill="#FFFFFF" width="2.845" height="2.568"/>
	<rect x="12.018" y="328.221" fill="#FFFFFF" width="2.846" height="2.569"/>
	<rect x="12.021" y="323.081" fill="#FFFFFF" width="2.847" height="2.569"/>
	<rect x="12.024" y="312.798" fill="#FFFFFF" width="2.843" height="2.57"/>
	<rect x="12.018" y="333.363" fill="#FFFFFF" width="2.844" height="2.569"/>
	<rect x="12.028" y="302.515" fill="#FFFFFF" width="2.844" height="2.572"/>
	<rect x="12.026" y="307.656" fill="#FFFFFF" width="2.843" height="2.57"/>
	<rect x="12.017" y="338.504" fill="#FFFFFF" width="2.844" height="1.258"/>
	<polygon fill="#FFFFFF" points="4.678,296.076 12.03,296.078 12.03,298.689 12.029,298.689 12.029,299.945 12.03,299.945 
		12.03,302.006 14.873,302.007 14.876,296.078 22.224,296.08 22.225,293.237 4.68,293.228 	"/>
	<polygon fill="#FFFFFF" points="76.958,449.948 73.968,449.948 73.968,463.235 82.844,463.235 82.844,460.666 76.958,460.666 	"/>
	<path fill="#FFFFFF" d="M201.594,460.358c-0.205,0.09-0.441,0.17-0.71,0.24s-0.575,0.131-0.92,0.182
		c-0.346,0.052-0.735,0.077-1.17,0.077c-0.69,0-1.278-0.112-1.764-0.335c-0.485-0.225-0.879-0.527-1.179-0.911
		c-0.301-0.384-0.518-0.841-0.652-1.37c-0.134-0.531-0.201-1.104-0.201-1.717c0-0.767,0.103-1.418,0.307-1.955
		s0.477-0.975,0.815-1.313c0.338-0.339,0.729-0.585,1.169-0.738c0.441-0.153,0.892-0.229,1.352-0.229
		c0.69,0,1.307,0.076,1.851,0.229c0.543,0.153,1.019,0.339,1.428,0.556l0.863-2.416c-0.103-0.062-0.269-0.152-0.499-0.268
		c-0.229-0.115-0.518-0.227-0.862-0.336c-0.346-0.107-0.748-0.204-1.208-0.287s-0.972-0.125-1.534-0.125
		c-0.971,0-1.872,0.154-2.703,0.461s-1.546,0.757-2.147,1.352c-0.601,0.594-1.073,1.322-1.418,2.186
		c-0.346,0.862-0.518,1.844-0.518,2.942c0,2.212,0.565,3.918,1.696,5.119c1.131,1.202,2.776,1.802,4.937,1.802
		c1.01,0,1.898-0.102,2.665-0.307c0.768-0.204,1.361-0.434,1.783-0.689l-0.824-2.396
		C201.984,460.186,201.798,460.269,201.594,460.358z"/>
</g>
</svg>
