<?xml version="1.0" encoding="utf-8"?>
<!-- Generator: Adobe Illustrator 16.0.4, SVG Export Plug-In . SVG Version: 6.00 Build 0)  -->
<!DOCTYPE svg PUBLIC "-//W3C//DTD SVG 1.1//EN" "http://www.w3.org/Graphics/SVG/1.1/DTD/svg11.dtd">
<svg version="1.1" id="Layer_1" xmlns="http://www.w3.org/2000/svg" xmlns:xlink="http://www.w3.org/1999/xlink" x="0px" y="0px"
	 width="296.444px" height="482.141px" viewBox="0 0 296.444 482.141" enable-background="new 0 0 296.444 482.141"
	 xml:space="preserve">
<path fill="#FFFFFF" d="M280.456,430.507c-0.148-0.008-0.296-0.008-0.444,0v0.023H263.26v-0.002h-19.173V85.219
	c0-0.069,0-0.14,0-0.221s0-0.303,0-0.453c-0.021-0.13-0.048-0.258-0.081-0.384c-0.03-0.14-0.073-0.275-0.128-0.407
	c-0.044-0.123-0.094-0.243-0.151-0.36c-0.059-0.128-0.125-0.252-0.197-0.372c-0.07-0.116-0.151-0.221-0.232-0.337
	c-0.083-0.11-0.172-0.216-0.268-0.314c-0.095-0.106-0.196-0.207-0.303-0.302c-0.058,0-0.104-0.116-0.174-0.163L142.634,2.914
	c-1.539-1.219-3.716-1.219-5.255,0L37.53,81.882c-0.069,0-0.116,0.116-0.174,0.163l-0.303,0.302c-0.096,0.1-0.185,0.204-0.268,0.314
	c-0.081,0.116-0.162,0.221-0.232,0.337c-0.072,0.12-0.139,0.244-0.197,0.372c-0.058,0.117-0.107,0.237-0.151,0.36
	c-0.055,0.132-0.098,0.268-0.128,0.407c-0.033,0.126-0.061,0.254-0.081,0.384c0,0.151,0,0.302,0,0.453s0,0.151,0,0.221v345.31H35.76
	v8.452h40.567c0.613,0.339,1.301,0.519,2,0.523h29.137c0.699-0.005,1.387-0.185,1.999-0.523h142.672v0.002h27.877
	c2.335,0.123,4.326-1.67,4.448-4.004C284.583,432.621,282.79,430.629,280.456,430.507z M74.095,114.32v83.177H44.378V89.427h29.717
	V114.32z M103.232,430.528H82.56v-20.161h20.672V430.528z M103.232,401.869H82.56v-20.673h20.672V401.869z M103.232,372.791H82.56
	V352.13h20.672V372.791z M103.232,343.654H82.56v-20.672h20.672V343.654z M103.232,314.007H82.56v-20.672h20.672V314.007z
	 M103.232,284.87H82.56v-20.672h20.672V284.87z M103.232,255.746H82.56v-20.672h20.672V255.746z M103.232,226.563H82.56v-20.626
	h20.672V226.563z M103.232,197.497H82.56v-20.685h20.672V197.497z M103.232,168.313H82.56v-20.637h20.672V168.313z M103.232,139.236
	H82.56v-20.684h20.672V139.236z M103.232,110.099H82.56V89.427h20.672V110.099z M52.319,80.964l87.688-69.353l87.688,69.353H52.319z
	 M235.612,197.497H111.684V89.427h123.928V197.497z"/>
<g>
	<rect x="234.01" y="462.25" fill="#FFFFFF" width="2.5" height="3"/>
	<path fill="#FFFFFF" d="M228.902,465.25h-5.108v-3h5.108V465.25z M218.686,465.25h-5.108v-3h5.108V465.25z M208.471,465.25h-5.108
		v-3h5.108V465.25z M198.256,465.25h-5.108v-3h5.108V465.25z M188.04,465.25h-5.108v-3h5.108V465.25z M177.825,465.25h-5.108v-3
		h5.108V465.25z M167.61,465.25h-5.108v-3h5.108V465.25z"/>
	<rect x="154.894" y="462.25" fill="#FFFFFF" width="2.5" height="3"/>
</g>
<g>
	<rect x="119.126" y="462.25" fill="#FFFFFF" width="2.5" height="3"/>
	<path fill="#FFFFFF" d="M113.951,465.25h-5.174v-3h5.174V465.25z M103.603,465.25h-5.174v-3h5.174V465.25z M93.254,465.25h-5.174
		v-3h5.174V465.25z M82.905,465.25h-5.174v-3h5.174V465.25z M72.556,465.25h-5.174v-3h5.174V465.25z M62.208,465.25h-5.174v-3h5.174
		V465.25z M51.859,465.25h-5.174v-3h5.174V465.25z"/>
	<rect x="39.01" y="462.25" fill="#FFFFFF" width="2.5" height="3"/>
</g>
<g>
	<rect x="10.76" y="197.75" fill="#FFFFFF" width="3" height="2.5"/>
	<path fill="#FFFFFF" d="M13.76,291.434h-3v-5.066h3V291.434z M13.76,281.302h-3v-5.066h3V281.302z M13.76,271.171h-3v-5.066h3
		V271.171z M13.76,261.039h-3v-5.066h3V261.039z M13.76,250.908h-3v-5.066h3V250.908z M13.76,240.776h-3v-5.066h3V240.776z
		 M13.76,230.645h-3v-5.066h3V230.645z M13.76,220.513h-3v-5.066h3V220.513z M13.76,210.382h-3v-5.066h3V210.382z"/>
	<rect x="10.76" y="296.5" fill="#FFFFFF" width="3" height="2.5"/>
</g>
<g>
	<rect x="10.76" y="338.23" fill="#FFFFFF" width="3" height="2.5"/>
	<path fill="#FFFFFF" d="M13.76,430.266h-3v-4.975h3V430.266z M13.76,420.318h-3v-4.975h3V420.318z M13.76,410.37h-3v-4.975h3
		V410.37z M13.76,400.421h-3v-4.974h3V400.421z M13.76,390.472h-3v-4.974h3V390.472z M13.76,380.524h-3v-4.975h3V380.524z
		 M13.76,370.576h-3v-4.975h3V370.576z M13.76,360.628h-3v-4.975h3V360.628z M13.76,350.679h-3v-4.975h3V350.679z"/>
	<rect x="10.76" y="435.24" fill="#FFFFFF" width="3" height="2.5"/>
</g>
<g>
	<path fill="#FFFFFF" d="M15.658,325.75c-0.154-0.481-0.32-0.977-0.498-1.483c-0.177-0.508-0.354-1.014-0.53-1.517H9.218
		c-0.175,0.506-0.351,1.012-0.526,1.521c-0.176,0.508-0.339,1.001-0.491,1.479H4.96c0.521-1.493,1.016-2.873,1.484-4.14
		c0.468-1.267,0.926-2.46,1.374-3.58c0.448-1.12,0.889-2.184,1.324-3.19c0.435-1.007,0.886-1.99,1.354-2.95h2.958
		c0.456,0.96,0.904,1.943,1.346,2.95s0.888,2.07,1.336,3.19s0.907,2.313,1.376,3.58s0.964,2.646,1.487,4.14H15.658z M11.91,315.03
		c-0.07,0.201-0.171,0.475-0.306,0.821c-0.134,0.347-0.287,0.747-0.458,1.201c-0.171,0.454-0.363,0.954-0.575,1.5
		c-0.211,0.546-0.426,1.118-0.645,1.717h3.964c-0.212-0.601-0.418-1.175-0.617-1.723c-0.199-0.547-0.388-1.048-0.566-1.503
		c-0.179-0.454-0.336-0.854-0.471-1.2C12.102,315.498,11.993,315.226,11.91,315.03z"/>
</g>
<g>
	<path fill="#FFFFFF" d="M146,464.309c0,1.2-0.187,2.247-0.56,3.141c-0.374,0.894-0.904,1.633-1.59,2.22s-1.523,1.027-2.51,1.32
		c-0.987,0.293-2.094,0.439-3.32,0.439c-0.56,0-1.213-0.023-1.96-0.069c-0.747-0.047-1.48-0.144-2.2-0.29v-13.5
		c0.72-0.134,1.47-0.224,2.25-0.271c0.78-0.046,1.45-0.069,2.01-0.069c1.187,0,2.263,0.133,3.23,0.399s1.797,0.687,2.49,1.26
		c0.693,0.574,1.227,1.308,1.6,2.2C145.813,461.983,146,463.056,146,464.309z M136.98,468.71c0.146,0.014,0.316,0.023,0.51,0.03
		s0.423,0.01,0.69,0.01c1.56,0,2.717-0.394,3.47-1.18c0.753-0.787,1.13-1.873,1.13-3.261c0-1.453-0.36-2.553-1.08-3.3
		c-0.72-0.746-1.86-1.12-3.42-1.12c-0.213,0-0.434,0.004-0.66,0.011s-0.44,0.023-0.64,0.05V468.71z"/>
</g>
<g>
	<rect x="3.01" y="197.75" fill="#FFFFFF" width="18.5" height="3"/>
	<rect x="10.76" y="197.75" fill="#FFFFFF" width="3" height="9.25"/>
</g>
<g>
	<rect x="3" y="436.24" fill="#FFFFFF" width="18.5" height="3"/>
	<rect x="10.75" y="429.99" fill="#FFFFFF" width="3" height="9.25"/>
</g>
<g>
	<rect x="36.125" y="454.5" fill="#FFFFFF" width="3" height="18.5"/>
	<rect x="36.125" y="462.25" fill="#FFFFFF" width="9.25" height="3"/>
</g>
<g>
	<rect x="239.26" y="454.5" fill="#FFFFFF" width="3" height="18.5"/>
	<rect x="233.01" y="462.25" fill="#FFFFFF" width="9.25" height="3"/>
</g>
</svg>
