<svg version="1.1" id="Layer_1" xmlns="http://www.w3.org/2000/svg" xmlns:xlink="http://www.w3.org/1999/xlink" x="0px" y="0px"
	 viewBox="-460.8 -96.7 50 50" style="enable-background:new -460.8 -96.7 50 50;" xml:space="preserve">
<path fill="#63DFB8" d="M-422.8-96.7h-26c-6.6,0-12,5.4-12,12v26c0,6.6,5.4,12,12,12h26c6.6,0,12-5.4,12-12v-26
	C-410.8-91.3-416.2-96.7-422.8-96.7z M-425.3-75.6l-11.6,11.6c-1,1-2.7,1-3.7,0l-5.7-5.7c-1-1-1-2.7,0-3.7c1-1,2.7-1,3.7,0l3.4,3.4
	c0.3,0.3,0.7,0.3,0.9,0l9.2-9.2c1-1,2.7-1,3.7,0c0.5,0.5,0.8,1.2,0.8,1.8C-424.6-76.8-424.8-76.1-425.3-75.6z"/>
</svg>
