<svg version="1.1" id="Layer_1" xmlns="http://www.w3.org/2000/svg" xmlns:xlink="http://www.w3.org/1999/xlink" x="0px" y="0px" viewBox="0 0 600.444 595.281" enable-background="new 0 0 600.444 595.281" xml:space="preserve">
    <path fill="#f3ca4a" d="M151.204,361.93c-35.147,34.357-91.492,33.717-125.85-1.431C8.943,343.711-0.169,321.117,0.003,297.64
      c0.03-49.314,40.032-89.268,89.347-89.237c23.066,0.015,45.232,8.954,61.854,24.947l266.09-133.046
         c-6.169-48.927,28.495-93.591,77.42-99.76c48.928-6.169,93.592,28.493,99.762,77.421c6.168,48.927-28.494,93.592-77.422,99.76
         c-26.721,3.369-53.535-5.502-72.973-24.143l-266.09,133.045c0.9,7.314,0.9,14.711,0,22.025l266.09,133.045
         c35.146-34.357,91.492-33.717,125.85,1.431c16.41,16.789,25.523,39.383,25.352,62.859c-0.412,49.313-40.723,88.955-90.035,88.543
         s-88.955-40.722-88.542-90.035c0.026-3.182,0.223-6.359,0.589-9.521L151.204,361.93L151.204,361.93z"></path>
    </svg>